<svg version="1.2" xmlns="http://www.w3.org/2000/svg" viewBox="0 0 599 200" width="599" height="200"><style>.a{fill:#1a407d}.b{fill:#2aa9e1}</style><path  d="m425.8 145.1q-6-5.2-6-13.7v-4.4q0-8.4 6.3-13.6 6.2-5.1 16.4-5.1h8.4q4 0 8.5 1.2 4.6 1.2 7.8 3.3v-9.7q0-4.9-3.1-7.9-3.1-3-8-3h-11q-5 0-8.1 2.4-3.1 2.4-3.1 6.2h-12.2q0-8.6 6.4-14 6.5-5.3 17-5.3h11q10.5 0 16.9 5.9 6.4 6 6.4 15.7v46h-11.6v-8.9q-3 4.5-8 7.3-4.9 2.7-10 2.7h-8q-10 0-16-5.1zm24.7-5.2q5.9 0 10.4-3.4 4.5-3.4 6.3-9.1v-4q-2.6-2.3-7-3.6-4.4-1.4-9-1.4h-8.6q-4.7 0-7.6 2.4-2.9 2.4-2.9 6.4v4q0 4.1 2.8 6.4 2.9 2.3 7.7 2.3z"/><path  d="m491.3 82.6h11.9v9.7q2.7-4.4 7.8-7.2 5.1-2.8 10.7-2.8h7v11.1h-7q-8.1 0-13 5-5 5-5 13.1v37.6h-12.4z"/><path  d="m538.9 143.5q-7.2-6.8-7.2-17.7v-18.4q0-11.8 7.2-18.8 7.1-7.1 18.9-7.1h10.9q11.3 0 18.3 6.9 6.9 7 6.9 18.4v12.6h-49.8v6.4q0 6.1 3.8 9.9 3.7 3.7 9.9 3.7h10.2q6 0 9.8-3.1 3.7-3.2 3.7-8.4h12.1q0 10-7 16.2-7.1 6.1-18.7 6.1h-10.1q-11.8 0-18.9-6.7zm42.6-34v-2.7q0-6.6-3.5-10.6-3.6-4-9.3-4h-10.9q-6.2 0-9.9 4.2-3.8 4.2-3.8 11.1v2z"/><path class="a" d="m84.7 131.1h-26.9c-6.2 0-11.3-5.1-11.3-11.3v-26.8c-29.8-35.7-37.1-49.3-38-55-2.8 3.9-4.5 8.8-4.5 14v97.2c0 13.5 10.9 24.4 24.3 24.4h97.3c5.3 0 10.3-1.8 14.3-4.7-6-1.2-19.9-8.8-55.2-37.8z"/><path class="b" d="m125.6 27.7h-97.3c-5.4 0-10.3 1.7-14.3 4.7 5.7 0.8 19.4 8 55.5 37.8h26.6c6.2 0 11.3 5 11.3 11.2v26.3c29.2 34.9 37.1 48.9 38.4 55 2.6-3.8 4.1-8.5 4.1-13.5v-97.2c0-13.5-10.9-24.3-24.3-24.3z"/><path  d="m201.8 142.5q-7.7-7.8-7.7-20.9h12.4q0 7.9 4.4 12.6 4.5 4.7 11.8 4.7h14.8q7.4 0 11.8-3.2 4.4-3.1 4.4-8.3v-7.2q0-4.2-3.1-7-3.2-2.8-8.9-3.7l-24.3-4q-10.7-1.7-16.5-7.3-5.8-5.6-5.8-14v-7.4q0-10 7.7-16.1 7.7-6 20.2-6h15.1q7.9 0 13.9 3.2 6.1 3.3 9.4 9.2 3.4 6 3.4 13.7h-12.6q0-6.7-3.8-10.7-3.9-4.1-10.3-4.1h-15.1q-6.8 0-11 3-4.2 3-4.2 8.2v6q0 4.3 3 7.1 3 2.8 8.6 3.9l24 4.1q11.1 1.9 17 7.3 6 5.4 6 13.5v8.7q0 10.1-7.8 16.3-7.8 6.1-20.8 6.1h-15.3q-13 0-20.7-7.7z"/><path  d="m325.5 142.1q-2.7 3.7-7.1 5.9-4.4 2.2-8.5 2.2h-9.6q-11.1 0-17.9-7.1-6.7-7-6.7-18.7v-16q0-8 3.2-14.1 3.2-6.1 9-9.5 5.8-3.3 13.4-3.3h9.4q4.2 0 8.6 2.3 4.3 2.2 6.8 6v-7.2h11.9v93.5h-12.5zm-15.4-2.8q6.3 0 10.6-4.9 4.2-4.9 4.8-12.5v-15.3q-0.6-6.3-4.6-10.2-4-4-9.6-4h-9.4q-6.2 0-10 4.5-3.8 4.5-3.8 12v15.2q0 6.9 3.5 11 3.5 4.2 9.2 4.2z"/><path  d="m355.8 143.7q-5.9-6.6-5.9-17.3v-43.8h12.4v44.1q0 5.6 2.8 9.1 2.8 3.5 7.3 3.5h8q5.6 0 10.3-4.6 4.7-4.5 6.1-11.5v-40.6h12.5v66.5h-11.8v-9.6q-3.2 4.7-8 7.7-4.8 3-9.5 3h-8.5q-9.7 0-15.7-6.5z"/><path  d="m425.8 145.1q-6-5.2-6-13.7v-4.4q0-8.4 6.3-13.6 6.2-5.1 16.4-5.1h8.4q4 0 8.5 1.2 4.6 1.2 7.8 3.3v-9.7q0-4.9-3.1-7.9-3.1-3-8-3h-11q-5 0-8.1 2.4-3.1 2.4-3.1 6.2h-12.2q0-8.6 6.4-14 6.5-5.3 17-5.3h11q10.5 0 16.9 5.9 6.4 6 6.4 15.7v46h-11.6v-8.9q-3 4.5-8 7.3-4.9 2.7-10 2.7h-8q-10 0-16-5.1zm24.7-5.2q5.9 0 10.4-3.4 4.5-3.4 6.3-9.1v-4q-2.6-2.3-7-3.6-4.4-1.4-9-1.4h-8.6q-4.7 0-7.6 2.4-2.9 2.4-2.9 6.4v4q0 4.1 2.8 6.4 2.9 2.3 7.7 2.3z"/><path  d="m491.3 82.6h11.9v9.7q2.7-4.4 7.8-7.2 5.1-2.8 10.7-2.8h7v11.1h-7q-8.1 0-13 5-5 5-5 13.1v37.6h-12.4z"/><path  d="m538.9 143.5q-7.2-6.8-7.2-17.7v-18.4q0-11.8 7.2-18.8 7.1-7.1 18.9-7.1h10.9q11.3 0 18.3 6.9 6.9 7 6.9 18.4v12.6h-49.8v6.4q0 6.1 3.8 9.9 3.7 3.7 9.9 3.7h10.2q6 0 9.8-3.1 3.7-3.2 3.7-8.4h12.1q0 10-7 16.2-7.1 6.1-18.7 6.1h-10.1q-11.8 0-18.9-6.7zm42.6-34v-2.7q0-6.6-3.5-10.6-3.6-4-9.3-4h-10.9q-6.2 0-9.9 4.2-3.8 4.2-3.8 11.1v2z"/><path class="a" d="m84.7 131.1h-26.9c-6.2 0-11.3-5.1-11.3-11.3v-26.8c-29.8-35.7-37.1-49.3-38-55-2.8 3.9-4.5 8.8-4.5 14v97.2c0 13.5 10.9 24.4 24.3 24.4h97.3c5.3 0 10.3-1.8 14.3-4.7-6-1.2-19.9-8.8-55.2-37.8z"/><path class="b" d="m125.6 27.7h-97.3c-5.4 0-10.3 1.7-14.3 4.7 5.7 0.8 19.4 8 55.5 37.8h26.6c6.2 0 11.3 5 11.3 11.2v26.3c29.2 34.9 37.1 48.9 38.4 55 2.6-3.8 4.1-8.5 4.1-13.5v-97.2c0-13.5-10.9-24.3-24.3-24.3z"/><path  d="m201.8 142.5q-7.7-7.8-7.7-20.9h12.4q0 7.9 4.4 12.6 4.5 4.7 11.8 4.7h14.8q7.4 0 11.8-3.2 4.4-3.1 4.4-8.3v-7.2q0-4.2-3.1-7-3.2-2.8-8.9-3.7l-24.3-4q-10.7-1.7-16.5-7.3-5.8-5.6-5.8-14v-7.4q0-10 7.7-16.1 7.7-6 20.2-6h15.1q7.9 0 13.9 3.2 6.1 3.3 9.4 9.2 3.4 6 3.4 13.7h-12.6q0-6.7-3.8-10.7-3.9-4.1-10.3-4.1h-15.1q-6.8 0-11 3-4.2 3-4.2 8.2v6q0 4.3 3 7.1 3 2.8 8.6 3.9l24 4.1q11.1 1.9 17 7.3 6 5.4 6 13.5v8.7q0 10.1-7.8 16.3-7.8 6.1-20.8 6.1h-15.3q-13 0-20.7-7.7z"/><path  d="m325.5 142.1q-2.7 3.7-7.1 5.9-4.4 2.2-8.5 2.2h-9.6q-11.1 0-17.9-7.1-6.7-7-6.7-18.7v-16q0-8 3.2-14.1 3.2-6.1 9-9.5 5.8-3.3 13.4-3.3h9.4q4.2 0 8.6 2.3 4.3 2.2 6.8 6v-7.2h11.9v93.5h-12.5zm-15.4-2.8q6.3 0 10.6-4.9 4.2-4.9 4.8-12.5v-15.3q-0.6-6.3-4.6-10.2-4-4-9.6-4h-9.4q-6.2 0-10 4.5-3.8 4.5-3.8 12v15.2q0 6.9 3.5 11 3.5 4.2 9.2 4.2z"/><path  d="m355.8 143.7q-5.9-6.6-5.9-17.3v-43.8h12.4v44.1q0 5.6 2.8 9.1 2.8 3.5 7.3 3.5h8q5.6 0 10.3-4.6 4.7-4.5 6.1-11.5v-40.6h12.5v66.5h-11.8v-9.6q-3.2 4.7-8 7.7-4.8 3-9.5 3h-8.5q-9.7 0-15.7-6.5z"/><path  d="m425.8 145.1q-6-5.2-6-13.7v-4.4q0-8.4 6.3-13.6 6.2-5.1 16.4-5.1h8.4q4 0 8.5 1.2 4.6 1.2 7.8 3.3v-9.7q0-4.9-3.1-7.9-3.1-3-8-3h-11q-5 0-8.1 2.4-3.1 2.4-3.1 6.2h-12.2q0-8.6 6.4-14 6.5-5.3 17-5.3h11q10.5 0 16.9 5.9 6.4 6 6.4 15.7v46h-11.6v-8.9q-3 4.5-8 7.3-4.9 2.7-10 2.7h-8q-10 0-16-5.1zm24.7-5.2q5.9 0 10.4-3.4 4.5-3.4 6.3-9.1v-4q-2.6-2.3-7-3.6-4.4-1.4-9-1.4h-8.6q-4.7 0-7.6 2.4-2.9 2.4-2.9 6.4v4q0 4.1 2.8 6.4 2.9 2.3 7.7 2.3z"/><path  d="m491.3 82.6h11.9v9.7q2.7-4.4 7.8-7.2 5.1-2.8 10.7-2.8h7v11.1h-7q-8.1 0-13 5-5 5-5 13.1v37.6h-12.4z"/><path  d="m538.9 143.5q-7.2-6.8-7.2-17.7v-18.4q0-11.8 7.2-18.8 7.1-7.1 18.9-7.1h10.9q11.3 0 18.3 6.9 6.9 7 6.9 18.4v12.6h-49.8v6.4q0 6.1 3.8 9.9 3.7 3.7 9.9 3.7h10.2q6 0 9.8-3.1 3.7-3.2 3.7-8.4h12.1q0 10-7 16.2-7.1 6.1-18.7 6.1h-10.1q-11.8 0-18.9-6.7zm42.6-34v-2.7q0-6.6-3.5-10.6-3.6-4-9.3-4h-10.9q-6.2 0-9.9 4.2-3.8 4.2-3.8 11.1v2z"/><path class="a" d="m84.7 131.1h-26.9c-6.2 0-11.3-5.1-11.3-11.3v-26.8c-29.8-35.7-37.1-49.3-38-55-2.8 3.9-4.5 8.8-4.5 14v97.2c0 13.5 10.9 24.4 24.3 24.4h97.3c5.3 0 10.3-1.8 14.3-4.7-6-1.2-19.9-8.8-55.2-37.8z"/><path class="b" d="m125.6 27.7h-97.3c-5.4 0-10.3 1.7-14.3 4.7 5.7 0.8 19.4 8 55.5 37.8h26.6c6.2 0 11.3 5 11.3 11.2v26.3c29.2 34.9 37.1 48.9 38.4 55 2.6-3.8 4.1-8.5 4.1-13.5v-97.2c0-13.5-10.9-24.3-24.3-24.3z"/><path  d="m201.8 142.5q-7.7-7.8-7.7-20.9h12.4q0 7.9 4.4 12.6 4.5 4.7 11.8 4.7h14.8q7.4 0 11.8-3.2 4.4-3.1 4.4-8.3v-7.2q0-4.2-3.1-7-3.2-2.8-8.9-3.7l-24.3-4q-10.7-1.7-16.5-7.3-5.8-5.6-5.8-14v-7.4q0-10 7.7-16.1 7.7-6 20.2-6h15.1q7.9 0 13.9 3.2 6.1 3.3 9.4 9.2 3.4 6 3.4 13.7h-12.6q0-6.7-3.8-10.7-3.9-4.1-10.3-4.1h-15.1q-6.8 0-11 3-4.2 3-4.2 8.2v6q0 4.3 3 7.1 3 2.8 8.6 3.9l24 4.1q11.1 1.9 17 7.3 6 5.4 6 13.5v8.7q0 10.1-7.8 16.3-7.8 6.1-20.8 6.1h-15.3q-13 0-20.7-7.7z"/><path  d="m325.5 142.1q-2.7 3.7-7.1 5.9-4.4 2.2-8.5 2.2h-9.6q-11.1 0-17.9-7.1-6.7-7-6.7-18.7v-16q0-8 3.2-14.1 3.2-6.1 9-9.5 5.8-3.3 13.4-3.3h9.4q4.2 0 8.6 2.3 4.3 2.2 6.8 6v-7.2h11.9v93.5h-12.5zm-15.4-2.8q6.3 0 10.6-4.9 4.2-4.9 4.8-12.5v-15.3q-0.6-6.3-4.6-10.2-4-4-9.6-4h-9.4q-6.2 0-10 4.5-3.8 4.5-3.8 12v15.2q0 6.9 3.5 11 3.5 4.2 9.2 4.2z"/><path  d="m355.8 143.7q-5.9-6.6-5.9-17.3v-43.8h12.4v44.1q0 5.6 2.8 9.1 2.8 3.5 7.3 3.5h8q5.6 0 10.3-4.6 4.7-4.5 6.1-11.5v-40.6h12.5v66.5h-11.8v-9.6q-3.2 4.7-8 7.7-4.8 3-9.5 3h-8.5q-9.7 0-15.7-6.5z"/><path  d="m425.8 145.1q-6-5.2-6-13.7v-4.4q0-8.4 6.3-13.6 6.2-5.1 16.4-5.1h8.4q4 0 8.5 1.2 4.6 1.2 7.8 3.3v-9.7q0-4.9-3.1-7.9-3.1-3-8-3h-11q-5 0-8.1 2.4-3.1 2.4-3.1 6.2h-12.2q0-8.6 6.4-14 6.5-5.3 17-5.3h11q10.5 0 16.9 5.9 6.4 6 6.4 15.7v46h-11.6v-8.9q-3 4.5-8 7.3-4.9 2.7-10 2.7h-8q-10 0-16-5.1zm24.7-5.2q5.9 0 10.4-3.4 4.5-3.4 6.3-9.1v-4q-2.6-2.3-7-3.6-4.4-1.4-9-1.4h-8.6q-4.7 0-7.6 2.4-2.9 2.4-2.9 6.4v4q0 4.1 2.8 6.4 2.9 2.3 7.7 2.3z"/><path  d="m491.3 82.6h11.9v9.7q2.7-4.4 7.8-7.2 5.1-2.8 10.7-2.8h7v11.1h-7q-8.1 0-13 5-5 5-5 13.1v37.6h-12.4z"/><path  d="m538.9 143.5q-7.2-6.8-7.2-17.7v-18.4q0-11.8 7.2-18.8 7.1-7.1 18.9-7.1h10.9q11.3 0 18.3 6.9 6.9 7 6.9 18.4v12.6h-49.8v6.4q0 6.1 3.8 9.9 3.7 3.7 9.9 3.7h10.2q6 0 9.8-3.1 3.7-3.2 3.7-8.4h12.1q0 10-7 16.2-7.1 6.1-18.7 6.1h-10.1q-11.8 0-18.9-6.7zm42.6-34v-2.7q0-6.6-3.5-10.6-3.6-4-9.3-4h-10.9q-6.2 0-9.9 4.2-3.8 4.2-3.8 11.1v2z"/><path class="a" d="m84.7 131.1h-26.9c-6.2 0-11.3-5.1-11.3-11.3v-26.8c-29.8-35.7-37.1-49.3-38-55-2.8 3.9-4.5 8.8-4.5 14v97.2c0 13.5 10.9 24.4 24.3 24.4h97.3c5.3 0 10.3-1.8 14.3-4.7-6-1.2-19.9-8.8-55.2-37.8z"/><path class="b" d="m125.6 27.7h-97.3c-5.4 0-10.3 1.7-14.3 4.7 5.7 0.8 19.4 8 55.5 37.8h26.6c6.2 0 11.3 5 11.3 11.2v26.3c29.2 34.9 37.1 48.9 38.4 55 2.6-3.8 4.1-8.5 4.1-13.5v-97.2c0-13.5-10.9-24.3-24.3-24.3z"/></svg>