<svg xmlns="http://www.w3.org/2000/svg" width="1600" height="500" viewBox="0 0 1600 500">
  <defs>
    <linearGradient id="bg" x1="0" y1="0" x2="1" y2="1">
      <stop offset="0%" stop-color="#0f172a"/>
      <stop offset="55%" stop-color="#312e81"/>
      <stop offset="100%" stop-color="#7c3aed"/>
    </linearGradient>
    <linearGradient id="accent" x1="0" y1="0" x2="1" y2="1">
      <stop offset="0%" stop-color="#f472b6"/>
      <stop offset="100%" stop-color="#60a5fa"/>
    </linearGradient>
  </defs>
  <rect width="1600" height="500" fill="url(#bg)"/>
  <circle cx="1300" cy="110" r="170" fill="#ffffff14"/>
  <circle cx="260" cy="390" r="180" fill="#f472b622"/>
  <rect x="90" y="80" width="540" height="340" rx="32" fill="#111827aa" stroke="#ffffff18"/>
  <rect x="155" y="160" width="140" height="120" rx="18" fill="#ffffff14"/>
  <rect x="300" y="190" width="150" height="90" rx="18" fill="#ffffff10"/>
  <rect x="460" y="150" width="100" height="130" rx="18" fill="#ffffff12"/>
  <rect x="205" y="292" width="260" height="56" rx="28" fill="#f8fafc18"/>
  <path d="M205 292c10-30 32-48 60-48h140c28 0 50 18 60 48" fill="none" stroke="url(#accent)" stroke-width="6" stroke-linecap="round"/>
  <rect x="190" y="350" width="290" height="16" rx="8" fill="url(#accent)"/>
  <text x="700" y="150" fill="#f8fafc" font-size="60" font-family="Arial, Helvetica, sans-serif" font-weight="700">NỘI THẤT SQUARE</text>
  <text x="700" y="210" fill="#ede9fe" font-size="34" font-family="Arial, Helvetica, sans-serif">Tìm designer hiểu thẩm mỹ và thi công</text>
  <text x="700" y="265" fill="#ddd6fe" font-size="24" font-family="Arial, Helvetica, sans-serif">Concept · Layout · Vật liệu · Triển khai công trình</text>
  <rect x="700" y="305" width="290" height="10" rx="5" fill="url(#accent)"/>
  <text x="700" y="392" fill="#ffffff" font-size="28" font-family="Arial, Helvetica, sans-serif" font-weight="700">Khám phá cơ hội cho designer nội thất</text>
</svg>
