<svg xmlns="http://www.w3.org/2000/svg" width="1600" height="500" viewBox="0 0 1600 500">
  <defs>
    <linearGradient id="bg" x1="0" y1="0" x2="1" y2="1">
      <stop offset="0%" stop-color="#08111f"/>
      <stop offset="55%" stop-color="#17415b"/>
      <stop offset="100%" stop-color="#0f766e"/>
    </linearGradient>
    <linearGradient id="accent" x1="0" y1="0" x2="1" y2="1">
      <stop offset="0%" stop-color="#2dd4bf"/>
      <stop offset="100%" stop-color="#38bdf8"/>
    </linearGradient>
  </defs>
  <rect width="1600" height="500" fill="url(#bg)"/>
  <circle cx="1310" cy="110" r="170" fill="#22d3ee1f"/>
  <circle cx="260" cy="390" r="190" fill="#2dd4bf1c"/>
  <rect x="90" y="80" width="540" height="340" rx="28" fill="#07111fcd" stroke="#ffffff18"/>
  <path d="M170 360V170l120-80 120 80v190z" fill="#ffffff10" stroke="#ffffff22" stroke-width="4"/>
  <path d="M230 360V210c0-35 24-58 60-58s60 23 60 58v150" fill="none" stroke="url(#accent)" stroke-width="6" stroke-linecap="round"/>
  <path d="M185 190h210" stroke="#ffffff16" stroke-width="2"/>
  <path d="M185 230h210" stroke="#ffffff16" stroke-width="2"/>
  <path d="M185 270h210" stroke="#ffffff16" stroke-width="2"/>
  <rect x="410" y="140" width="150" height="180" rx="18" fill="#ffffff12"/>
  <rect x="430" y="160" width="110" height="12" rx="6" fill="url(#accent)"/>
  <rect x="430" y="190" width="90" height="90" rx="12" fill="#ffffff10"/>
  <text x="700" y="150" fill="#f8fafc" font-size="60" font-family="Arial, Helvetica, sans-serif" font-weight="700">KIẾN TRÚC & BIM</text>
  <text x="700" y="210" fill="#ccfbf1" font-size="34" font-family="Arial, Helvetica, sans-serif">Lọc ứng viên có tư duy triển khai</text>
  <text x="700" y="265" fill="#b8f3ea" font-size="24" font-family="Arial, Helvetica, sans-serif">Concept · Hồ sơ kỹ thuật · BIM · Phản biện thiết kế</text>
  <rect x="700" y="305" width="290" height="10" rx="5" fill="url(#accent)"/>
  <text x="700" y="392" fill="#ffffff" font-size="28" font-family="Arial, Helvetica, sans-serif" font-weight="700">Khám phá ngành kiến trúc</text>
</svg>
