<svg xmlns="http://www.w3.org/2000/svg" width="1600" height="500" viewBox="0 0 1600 500">
  <defs>
    <linearGradient id="bg" x1="0" y1="0" x2="1" y2="1">
      <stop offset="0%" stop-color="#0b1020"/>
      <stop offset="55%" stop-color="#1f3a5f"/>
      <stop offset="100%" stop-color="#475569"/>
    </linearGradient>
    <linearGradient id="accent" x1="0" y1="0" x2="1" y2="1">
      <stop offset="0%" stop-color="#22c55e"/>
      <stop offset="100%" stop-color="#facc15"/>
    </linearGradient>
  </defs>
  <rect width="1600" height="500" fill="url(#bg)"/>
  <rect x="80" y="70" width="560" height="360" rx="28" fill="#09111ccc" stroke="#ffffff14"/>
  <path d="M150 330h450" stroke="#ffffff18" stroke-width="2"/>
  <path d="M150 300h450" stroke="#ffffff18" stroke-width="2"/>
  <path d="M150 270h450" stroke="#ffffff18" stroke-width="2"/>
  <path d="M150 240h450" stroke="#ffffff18" stroke-width="2"/>
  <path d="M150 210h450" stroke="#ffffff18" stroke-width="2"/>
  <path d="M240 120v250" stroke="#ffffff18" stroke-width="2"/>
  <path d="M370 120v250" stroke="#ffffff18" stroke-width="2"/>
  <path d="M500 120v250" stroke="#ffffff18" stroke-width="2"/>
  <path d="M160 330l120-150 90 95 95-130 120 85" fill="none" stroke="url(#accent)" stroke-width="6" stroke-linecap="round" stroke-linejoin="round"/>
  <path d="M540 90l70 50-70 50" fill="none" stroke="#f97316" stroke-width="12" stroke-linecap="round" stroke-linejoin="round"/>
  <rect x="650" y="110" width="840" height="280" rx="24" fill="#07111f66"/>
  <text x="700" y="165" fill="#f8fafc" font-size="60" font-family="Arial, Helvetica, sans-serif" font-weight="700">XÂY DỰNG & GIÁM SÁT</text>
  <text x="700" y="225" fill="#dbeafe" font-size="34" font-family="Arial, Helvetica, sans-serif">Chốt đội ngũ công trường vững tay</text>
  <text x="700" y="280" fill="#cbd5e1" font-size="24" font-family="Arial, Helvetica, sans-serif">Site engineer · QA/QC · Chỉ huy trưởng · An toàn lao động</text>
  <rect x="700" y="318" width="320" height="10" rx="5" fill="url(#accent)"/>
  <text x="700" y="384" fill="#ffffff" font-size="28" font-family="Arial, Helvetica, sans-serif" font-weight="700">Xem cơ hội việc làm theo ngành</text>
</svg>
